<svg width="852" height="683" viewBox="0 0 852 683" fill="none" xmlns="http://www.w3.org/2000/svg">
<path d="M346.06 405.85H334.88V656.44H346.06V405.85Z" fill="#EBEBEB" stroke="#002346" stroke-miterlimit="10"/>
<path d="M279.73 621.14V503.62H274.37V621.14H236.19V640.23H240.67V625.46H274.37V640.23H279.73V625.46H313.04V640.23H318.52V621.14H279.73Z" fill="#EBEBEB" stroke="#002346" stroke-miterlimit="10"/>
<path d="M232.15 494.51H315.53V506.84H232.15C231.38 506.84 230.76 506.22 230.76 505.45V495.89C230.76 495.13 231.39 494.51 232.15 494.51Z" fill="white" stroke="#002346" stroke-miterlimit="10"/>
<path d="M219.43 466.61H337.83V496.13H219.43C217 496.13 215.03 494.16 215.03 491.73V470.96C215.06 468.55 217.02 466.61 219.43 466.61Z" fill="#EBEBEB" stroke="#002346" stroke-miterlimit="10"/>
<path d="M358.2 602.37L395.96 599.47C400.67 599.11 404.19 595 403.84 590.29C403.81 589.92 403.76 589.56 403.68 589.2L379.68 473.85C379.68 473.85 379.68 473.11 379.49 471.8C376.72 448.46 359.87 429.22 337.1 423.39L303.03 414.61C303.03 414.61 290.79 411.61 283.68 407.52C283.68 407.52 283.25 409.46 276.58 412.02L352.76 487.02L345.51 544.02L349.03 594.44C349.36 599.15 353.44 602.7 358.16 602.37C358.17 602.37 358.19 602.37 358.2 602.37Z" fill="#FEFCE8" stroke="#002346" stroke-miterlimit="10"/>
<path d="M234.4 404.13L228.4 428.47C228.4 428.47 219.83 455.82 243.97 468.69C243.97 468.69 251.88 474.16 272.05 473.84H320.6L276.15 580.99C274.85 584.13 276.33 587.73 279.47 589.03C279.5 589.04 279.54 589.06 279.57 589.07L318.94 604.61C322.1 605.85 325.67 604.3 326.91 601.13C326.95 601.02 326.99 600.91 327.03 600.81L363.03 489.92C363.03 489.92 374.56 461.35 360.72 443.64C355.8 437.23 349.01 432.5 341.29 430.11L303.03 417.85C303.03 417.85 283.63 414.02 282.3 408.85C282.28 408.85 267.97 425.16 234.4 404.13Z" fill="#FEFCE8" stroke="#002346" stroke-miterlimit="10"/>
<path d="M257.35 283.8C257.2 284.32 257.4 284.89 257.85 285.19L275.78 297.55C275.78 297.55 280.83 301.84 282.09 296.29L290.58 276.24C287.23 273.78 284.47 270.59 282.52 266.91L261.14 270.79L257.35 283.8Z" fill="#F2B3C1" stroke="#002346" stroke-miterlimit="10"/>
<path d="M319.06 232.35C319.06 220.476 309.434 210.85 297.56 210.85C285.686 210.85 276.06 220.476 276.06 232.35V259.35C276.06 271.224 285.686 280.85 297.56 280.85C309.434 280.85 319.06 271.224 319.06 259.35V232.35Z" fill="#F2B3C1" stroke="#002346" stroke-miterlimit="10"/>
<path d="M232.73 402.3C232.52 402.77 232.71 403.33 233.16 403.58L243.38 409.49C249.9 413.33 257.37 415.26 264.93 415.08C271.38 414.86 279.5 413.55 283.93 407.65L287.62 364.04C287.62 364.04 308.53 353.09 301.56 329.68C301.56 329.68 292.69 304.67 282.48 296.61C282.3 296.47 282.03 296.57 281.98 296.8C281.72 298.04 280.59 300.89 275.74 297.55L257.87 285.24C257.38 284.91 257.17 284.3 257.33 283.73L257.54 283.02C257.54 283.02 229.35 281.33 228.35 315.97C228.35 315.97 230.35 333.91 233.58 353.58C233.61 353.61 239.63 385.39 232.72 402.3H232.73Z" fill="#8B5CF6" stroke="#002346" stroke-miterlimit="10"/>
<path d="M442.22 364.49L445.33 369.02L457.61 345.95L461.26 347.66L447.48 374L461.92 396.41H456.61L444.83 377.82L434.79 396.41H430.55L442.84 374.5L439.85 368.78L442.22 364.49Z" fill="#8B5CF6" stroke="#002346" stroke-miterlimit="10"/>
<path d="M474.71 352.6V364.18H565V396.41H577.77V352.6H474.71Z" fill="white" stroke="#002346" stroke-miterlimit="10"/>
<path d="M565 364.18H474.71V371.17H565V364.18Z" fill="#EBEBEB" stroke="#002346" stroke-miterlimit="10"/>
<path d="M552.23 347.64H501.18V352.6H552.23V347.64Z" fill="white" stroke="#002346" stroke-miterlimit="10"/>
<path d="M285.27 591.33C285.27 591.33 282.64 604.52 280.1 607.04C280.1 607.04 270.83 619.95 285.27 627.1L318.03 642.21C319.23 642.78 320.57 642.97 321.88 642.76C324.06 642.51 325.66 640.6 325.53 638.41C325.55 636.14 324.57 633.98 322.84 632.5L305.44 617.1L309.69 600.99L285.27 591.33Z" fill="#F2B3C1" stroke="#002346" stroke-miterlimit="10"/>
<path d="M366.58 601.73C368.11 608.59 369.22 615.54 369.91 622.54C369.91 622.54 371.14 637.15 384.73 636.12L420.64 631.93C421.56 631.83 422.45 631.51 423.22 631C424.63 630 426.43 628.22 425.55 625.46C424.86 623.48 423.14 622.03 421.07 621.68L398.43 617.35C397.59 617.19 396.9 616.59 396.63 615.78L391.3 599.83L366.58 601.73Z" fill="#F2B3C1" stroke="#002346" stroke-miterlimit="10"/>
<path d="M582.26 415H443.88V656.44H582.26V415Z" fill="#EBEBEB" stroke="#002346" stroke-miterlimit="10"/>
<path d="M566.47 485.74H457.66V562.83H566.47V485.74Z" fill="white" stroke="#002346" stroke-miterlimit="10"/>
<path d="M566.47 429.92H457.66V477.85H566.47V429.92Z" fill="white" stroke="#002346" stroke-miterlimit="10"/>
<path d="M566.47 570.73H457.66V647.82H566.47V570.73Z" fill="white" stroke="#002346" stroke-miterlimit="10"/>
<path d="M307.03 372.51L296.19 375.51C296.19 375.51 299.03 368.37 304.34 368.94L307.03 372.51Z" fill="#F7A48B"/>
<path d="M597.38 408.85H434.79V421.15H597.38V408.85Z" fill="white" stroke="#002346" stroke-miterlimit="10"/>
<path d="M368.19 337.13L411.68 385.13L419.03 389.51L415.26 383.1L372.03 333.71C371.1 332.64 369.47 332.53 368.4 333.46C368.34 333.51 368.28 333.57 368.23 333.63C367.3 334.6 367.28 336.13 368.19 337.13Z" fill="#2F2E41"/>
<path d="M603.34 396.41H315.53V408.86H603.34V396.41Z" fill="#EBEBEB" stroke="#002346" stroke-miterlimit="10"/>
<path d="M307.03 372.51C304.69 372.86 269.43 301.51 269.43 301.51C269.43 301.51 258.23 279.6 239.8 295.04C239.8 295.04 223.62 307.24 239.8 326.16L277.51 388.9C277.51 388.9 291.09 414.04 320.22 402.84L387.44 382.42C387.44 382.42 406.19 386.7 408.29 372.96C408.78 369.77 408.18 366.51 406.55 363.72C404.3 359.85 399.61 355.11 390.67 357.78C390.67 357.78 383.35 349.62 381.14 356.89C380.77 358.11 380.68 359.39 380.78 360.66L381.17 365.49C381.17 365.49 329.96 369.02 307.02 372.51H307.03Z" fill="#F2B3C1" stroke="#002346" stroke-miterlimit="10"/>
<path d="M448.48 334.99L413.63 396.41H424.58L455.95 339.64L448.48 334.99Z" fill="white" stroke="#002346" stroke-miterlimit="10"/>
<path d="M504.02 278.15L523.4 286.89V347.64H528.84V282.17L506.15 272.48L543.49 171.78L529.31 166.35L469.75 329.67L483.69 334.99L504.02 278.15Z" fill="#FEFCE8" stroke="#002346" stroke-miterlimit="10"/>
<path d="M478.07 332.85L469.75 329.67L529.31 166.35L537.35 169.43L478.07 332.85Z" fill="#EBEBEB" stroke="#002346" stroke-miterlimit="10"/>
<path d="M313.3 87.54V191.23C313.3 194.41 310.73 196.99 307.55 197H168.4C165.22 197 162.64 194.41 162.63 191.23V87.54C162.63 84.36 165.22 81.78 168.4 81.78H307.55C310.73 81.78 313.3 84.35 313.3 87.53V87.54Z" fill="#EBEBEB" stroke="#002346" stroke-miterlimit="10"/>
<path d="M313.3 87.54V103.61H162.63V87.61C162.63 84.43 165.22 81.85 168.4 81.85H307.55C310.7 81.85 313.27 84.39 313.3 87.54Z" fill="#FEFCE8" stroke="#002346" stroke-miterlimit="10"/>
<path d="M189.61 114.95H170.85V133.71H189.61V114.95Z" fill="#FEFCE8" stroke="#002346" stroke-miterlimit="10"/>
<path d="M189.61 137.5H170.85V141.43H189.61V137.5Z" fill="#FEFCE8" stroke="#002346" stroke-miterlimit="10"/>
<path d="M189.61 145.22H170.85V149.15H189.61V145.22Z" fill="#FEFCE8" stroke="#002346" stroke-miterlimit="10"/>
<path d="M189.61 152.95H170.85V156.88H189.61V152.95Z" fill="#FEFCE8" stroke="#002346" stroke-miterlimit="10"/>
<path d="M313.3 103.61V191.25C313.3 194.43 310.73 197.01 307.55 197.02H200.17V103.61H313.3Z" fill="white" stroke="#002346" stroke-miterlimit="10"/>
<path d="M239.75 117.26H207.63V126.13H239.75V117.26Z" fill="#EBEBEB" stroke="#002346" stroke-miterlimit="10"/>
<path d="M300.07 114.95H247.55V141.92H300.07V114.95Z" fill="#EBEBEB" stroke="#002346" stroke-miterlimit="10"/>
<path d="M232.83 133.71H212.42V136.59H232.83V133.71Z" fill="#EBEBEB" stroke="#002346" stroke-miterlimit="10"/>
<path d="M300.07 147.6H209.04V152.39H300.07V147.6Z" fill="#EBEBEB" stroke="#002346" stroke-miterlimit="10"/>
<path d="M299.36 158.6H209.04V163.04H299.36V158.6Z" fill="#EBEBEB" stroke="#002346" stroke-miterlimit="10"/>
<path d="M299.36 170.13H209.04V174.57H299.36V170.13Z" fill="#EBEBEB" stroke="#002346" stroke-miterlimit="10"/>
<path d="M299.36 181.67H209.04V186.11H299.36V181.67Z" fill="#EBEBEB" stroke="#002346" stroke-miterlimit="10"/>
<path d="M181.37 235.58H69.8301C68.1677 235.58 66.8201 236.928 66.8201 238.59V327.43C66.8201 329.092 68.1677 330.44 69.8301 330.44H181.37C183.032 330.44 184.38 329.092 184.38 327.43V238.59C184.38 236.928 183.032 235.58 181.37 235.58Z" fill="white" stroke="#002346" stroke-miterlimit="10"/>
<path d="M176.52 311.82H75.26V315.93H176.52V311.82Z" fill="#EBEBEB" stroke="#002346" stroke-miterlimit="10"/>
<path d="M175.02 244.02H98C97.1716 244.02 96.5 244.692 96.5 245.52V298.39C96.5 299.218 97.1716 299.89 98 299.89H175.02C175.848 299.89 176.52 299.218 176.52 298.39V245.52C176.52 244.692 175.848 244.02 175.02 244.02Z" fill="#EBEBEB" stroke="#002346" stroke-miterlimit="10"/>
<path d="M90.97 246.93H75.26V256.53H90.97V246.93Z" fill="#EBEBEB" stroke="#002346" stroke-miterlimit="10"/>
<path d="M90.97 265.26H75.26V274.86H90.97V265.26Z" fill="#EBEBEB" stroke="#002346" stroke-miterlimit="10"/>
<path d="M90.97 283.59H75.26V293.19H90.97V283.59Z" fill="#EBEBEB" stroke="#002346" stroke-miterlimit="10"/>
<path d="M136.51 291.88C147.517 291.88 156.44 282.957 156.44 271.95C156.44 260.943 147.517 252.02 136.51 252.02C125.503 252.02 116.58 260.943 116.58 271.95C116.58 282.957 125.503 291.88 136.51 291.88Z" fill="#8B5CF6" stroke="#002346" stroke-miterlimit="10"/>
<path d="M133.46 265.26V279.52L146.55 272.39L133.46 265.26Z" fill="white" stroke="#002346" stroke-miterlimit="10"/>
<path d="M133.85 370.66V414.72H192.43V370.66C192.43 370.5 192.25 370.39 192.11 370.48L167.51 385.76H158.54L134.17 370.48C134.03 370.39 133.85 370.49 133.85 370.66Z" fill="white" stroke="#002346" stroke-miterlimit="10"/>
<path d="M134.36 370.28H191.91C192.06 370.28 192.11 370.47 191.99 370.55L167.51 385.76H158.54L134.29 370.55C134.16 370.47 134.22 370.28 134.37 370.28H134.36Z" fill="#EBEBEB" stroke="#002346" stroke-miterlimit="10"/>
<path d="M144.85 353.22V377.18L158.54 385.76H167.51L182.42 376.5V353.22H144.85Z" fill="#8B5CF6" stroke="#002346" stroke-miterlimit="10"/>
<path d="M272.01 214.3C279.118 214.3 284.88 208.538 284.88 201.43C284.88 194.322 279.118 188.56 272.01 188.56C264.902 188.56 259.14 194.322 259.14 201.43C259.14 208.538 264.902 214.3 272.01 214.3Z" fill="#002346" stroke="#002346" stroke-miterlimit="10"/>
<path d="M279.45 219.31C284.917 219.31 289.35 214.878 289.35 209.41C289.35 203.942 284.917 199.51 279.45 199.51C273.982 199.51 269.55 203.942 269.55 209.41C269.55 214.878 273.982 219.31 279.45 219.31Z" fill="#8B5CF6" stroke="#002346" stroke-miterlimit="10"/>
<path d="M309.85 226.47C307.03 228.63 301.04 231.88 289.93 232.58C289.93 232.58 290.46 241.07 278.63 247.43C278.63 247.43 272.56 259.35 280.56 272.49C280.56 272.49 275.66 273.49 267.87 270.77C267.87 270.77 262.85 275.65 254.68 275.09C251.38 274.86 248.42 272.8 247.18 269.73C245.51 265.61 244.88 258.26 249.95 245.73C249.95 245.73 262.31 201.54 288.4 201.91C288.4 201.91 300.45 200.21 310.62 205.83C320.49 211.28 323.43 229.94 319.99 238.4C319.81 238.83 319.23 238.89 318.96 238.51L317.79 236.82C316.69 235.23 315.77 233.52 315.1 231.71C314.71 230.65 314.45 229.7 314.03 227.98C313.96 227.67 313.83 227.38 313.66 227.12C312.81 225.84 311.06 225.56 309.84 226.49L309.85 226.47Z" fill="#002346" stroke="#002346" stroke-miterlimit="10"/>
<path d="M401.08 358.56C401.08 358.56 399.08 361.21 391.32 362.78" stroke="#002346" stroke-linecap="round" stroke-linejoin="round"/>
<path d="M405.08 362.49C405.08 362.49 403.08 365.23 395.32 366.85" stroke="#002346" stroke-linecap="round" stroke-linejoin="round"/>
<path d="M408.08 367.49C408.08 367.49 406.08 370.23 398.32 371.85" stroke="#002346" stroke-linecap="round" stroke-linejoin="round"/>
<path d="M408.08 373.49C408.08 373.49 406.08 376.23 398.32 377.85" stroke="#002346" stroke-linecap="round" stroke-linejoin="round"/>
<path d="M320.6 473.84H334.56" stroke="#002346" stroke-linecap="round" stroke-linejoin="round"/>
<path d="M150.14 359.85H177.14" stroke="#002346" stroke-linecap="round" stroke-linejoin="round"/>
<path d="M150.14 365.6H177.14" stroke="#002346" stroke-linecap="round" stroke-linejoin="round"/>
<path d="M150.14 371.35H177.14" stroke="#002346" stroke-linecap="round" stroke-linejoin="round"/>
<path d="M711.37 628.6H695.93V656.43H711.37V628.6Z" fill="#E6E7E8" stroke="#002346" stroke-miterlimit="10"/>
<path d="M779.59 628.6H764.15V656.43H779.59V628.6Z" fill="#E6E7E8" stroke="#002346" stroke-miterlimit="10"/>
<path d="M662 461.75H785.21C787.78 461.75 789.87 463.83 789.87 466.41V623.96C789.87 626.53 787.79 628.62 785.21 628.62H662V461.76V461.75Z" fill="#E6E7E8" stroke="#002346" stroke-miterlimit="10"/>
<path d="M758.47 461.75H643.24C640.666 461.75 638.58 463.836 638.58 466.41V623.95C638.58 626.524 640.666 628.61 643.24 628.61H758.47C761.044 628.61 763.13 626.524 763.13 623.95V466.41C763.13 463.836 761.044 461.75 758.47 461.75Z" fill="white" stroke="#002346" stroke-miterlimit="10"/>
<path d="M665.03 628.6H649.59V656.43H665.03V628.6Z" fill="white" stroke="#002346" stroke-miterlimit="10"/>
<path d="M753.8 628.6H738.36V656.43H753.8V628.6Z" fill="white" stroke="#002346" stroke-miterlimit="10"/>
<path d="M646.95 506.9V474.73C646.95 471.97 649.19 469.73 651.95 469.73H749.75C752.51 469.73 754.75 471.97 754.75 474.73V506.9C754.75 509.66 752.51 511.9 749.75 511.9H651.95C649.19 511.9 646.95 509.66 646.95 506.9Z" fill="#E6E7E8" stroke="#002346" stroke-miterlimit="10"/>
<path d="M700.86 495.82C703.622 495.82 705.86 493.581 705.86 490.82C705.86 488.059 703.622 485.82 700.86 485.82C698.099 485.82 695.86 488.059 695.86 490.82C695.86 493.581 698.099 495.82 700.86 495.82Z" fill="white" stroke="#002346" stroke-miterlimit="10"/>
<path d="M646.95 560.4V528.23C646.95 525.47 649.19 523.23 651.95 523.23H749.75C752.51 523.23 754.75 525.47 754.75 528.23V560.4C754.75 563.16 752.51 565.4 749.75 565.4H651.95C649.19 565.4 646.95 563.16 646.95 560.4Z" fill="#E6E7E8" stroke="#002346" stroke-miterlimit="10"/>
<path d="M700.86 549.32C703.622 549.32 705.86 547.081 705.86 544.32C705.86 541.559 703.622 539.32 700.86 539.32C698.099 539.32 695.86 541.559 695.86 544.32C695.86 547.081 698.099 549.32 700.86 549.32Z" fill="white" stroke="#002346" stroke-miterlimit="10"/>
<path d="M646.95 613.9V581.73C646.95 578.97 649.19 576.73 651.95 576.73H749.75C752.51 576.73 754.75 578.97 754.75 581.73V613.9C754.75 616.66 752.51 618.9 749.75 618.9H651.95C649.19 618.9 646.95 616.66 646.95 613.9Z" fill="#E6E7E8" stroke="#002346" stroke-miterlimit="10"/>
<path d="M700.86 602.82C703.622 602.82 705.86 600.581 705.86 597.82C705.86 595.059 703.622 592.82 700.86 592.82C698.099 592.82 695.86 595.059 695.86 597.82C695.86 600.581 698.099 602.82 700.86 602.82Z" fill="white" stroke="#002346" stroke-miterlimit="10"/>
<path d="M714.13 414.64C714.13 414.64 715.26 388.83 712.42 376.07C711.94 373.92 710.93 371.92 709.46 370.28C703.68 363.78 685.75 343.97 670.51 331.19C670.51 331.19 684.78 328.22 698.26 336.34V345.06L701.24 338.12C701.24 338.12 717.89 348.03 716.3 375.19L715.51 401.35L714.12 414.64H714.13Z" fill="#7CD295" stroke="#002346" stroke-miterlimit="10"/>
<path d="M685.88 436.15C685.88 448.67 694.85 459.39 707.17 461.61C721.25 464.12 734.69 454.74 737.2 440.67C737.47 439.18 737.6 437.67 737.6 436.15C737.6 429.82 735.29 423.72 731.09 418.99L703.07 418.8L692.62 418.72C688.27 423.48 685.86 429.7 685.87 436.15H685.88Z" fill="#8B5CF6" stroke="#002346" stroke-miterlimit="10"/>
<path d="M717.21 418.9V416.56C717.17 413.47 718.4 410.5 720.6 408.34L759.78 369.83C759.78 369.83 740.93 367.45 731.96 374.96L731.77 385.21L728.66 377.16C728.66 377.16 711.82 384.3 713.29 418.89L717.2 418.92L717.21 418.9Z" fill="#7CD295" stroke="#002346" stroke-miterlimit="10"/>
<path d="M707.98 418.83L705.84 401.3C705.69 400.05 705.14 398.88 704.29 397.96C698.68 391.95 676.48 368.43 663.59 357.76C663.59 357.76 678.46 356.37 691.73 363.11L692.13 372.43L695.11 365.29C695.11 365.29 709.58 373.42 709.98 401.74V418.82L708 418.83H707.98Z" fill="#7CD295" stroke="#002346" stroke-miterlimit="10"/>
<path d="M627.94 262.46H798.94V26.46L627.94 26.46V262.46Z" stroke="#002346" stroke-linecap="round" stroke-linejoin="round"/>
<path d="M635.44 251.96L790.44 251.96V36.96L635.44 36.96V251.96Z" stroke="#002346" stroke-linecap="round" stroke-linejoin="round"/>
<path d="M635.91 247.73C637.9 247.88 638.91 247.95 640.94 247.95C681.53 247.95 714.44 217.95 714.44 180.95C714.44 143.95 681.53 113.95 640.94 113.95C639.09 113.95 637.25 114.01 635.43 114.14" stroke="#002346" stroke-linecap="round" stroke-linejoin="round"/>
<path d="M758.26 37.55C758.26 37.55 727.94 94.45 790.94 129.45" stroke="#002346" stroke-linecap="round" stroke-linejoin="round"/>
<path d="M660.71 37.57C660.71 37.57 721.38 53.4 735.89 139.85C736.68 144.54 737.11 149.29 737.32 154.05C738.16 173.78 743.11 239.47 771.94 252.3" stroke="#002346" stroke-linecap="round" stroke-linejoin="round"/>
<path d="M676.94 194.95C689.366 194.95 699.44 189.801 699.44 183.45C699.44 177.099 689.366 171.95 676.94 171.95C664.514 171.95 654.44 177.099 654.44 183.45C654.44 189.801 664.514 194.95 676.94 194.95Z" stroke="#002346" stroke-linecap="round" stroke-linejoin="round"/>
<path d="M676.94 184.95C681.634 184.95 685.44 182.711 685.44 179.95C685.44 177.189 681.634 174.95 676.94 174.95C672.246 174.95 668.44 177.189 668.44 179.95C668.44 182.711 672.246 184.95 676.94 184.95Z" stroke="#002346" stroke-linecap="round" stroke-linejoin="round"/>
<path d="M669.94 90.95C682.366 90.95 692.44 85.8013 692.44 79.45C692.44 73.0987 682.366 67.95 669.94 67.95C657.514 67.95 647.44 73.0987 647.44 79.45C647.44 85.8013 657.514 90.95 669.94 90.95Z" stroke="#002346" stroke-linecap="round" stroke-linejoin="round"/>
<path d="M669.94 80.95C674.634 80.95 678.44 78.7114 678.44 75.95C678.44 73.1886 674.634 70.95 669.94 70.95C665.246 70.95 661.44 73.1886 661.44 75.95C661.44 78.7114 665.246 80.95 669.94 80.95Z" stroke="#002346" stroke-linecap="round" stroke-linejoin="round"/>
<path d="M765.94 190.95C772.291 190.95 777.44 180.876 777.44 168.45C777.44 156.024 772.291 145.95 765.94 145.95C759.589 145.95 754.44 156.024 754.44 168.45C754.44 180.876 759.589 190.95 765.94 190.95Z" stroke="#002346" stroke-linecap="round" stroke-linejoin="round"/>
<path d="M769.44 176.95C772.201 176.95 774.44 173.144 774.44 168.45C774.44 163.756 772.201 159.95 769.44 159.95C766.679 159.95 764.44 163.756 764.44 168.45C764.44 173.144 766.679 176.95 769.44 176.95Z" stroke="#002346" stroke-linecap="round" stroke-linejoin="round"/>
</svg>
